<svg width="224" height="198" viewBox="0 0 224 198" xmlns="http://www.w3.org/2000/svg" fill="none"><path d="M159.845 88.121l-47.845-27.198-47.845 27.198v63.099l47.845 27.197 47.845-27.197v-63.099zM112 60.923v-19.582l63.068 36.989-15.223 9.791-47.845-27.198z" fill="#B8B8B8"/><path d="M153.32 92.21l-41.32-23.672-41.32 23.672v54.919l41.32 23.672 41.32-23.672v-54.919z" fill="#002E41"/><path d="M159.845 151.219v-63.098l15.223-9.791v82.682l-15.223-9.792z" fill="#9C9C9C"/><path d="M112 198v-19.583l47.845-27.198 15.223 9.792-63.068 36.989z" fill="#B8B8B8"/><path d="M112 198v-19.583l-47.845-27.198-15.223 9.792 63.068 36.989z" fill="#D4D4D4"/><path d="M48.932 78.329l15.223 9.791v63.098l-15.223 9.792v-82.682z" fill="#E9E9E9"/><path d="M112 60.923l-47.845 27.198-15.223-9.791 63.068-36.989v19.582zM112 60.923v7.615l41.32 23.934 6.525-4.352-47.845-27.198z" fill="#D4D4D4"/><path d="M159.845 88.121l-6.525 4.352v54.396l6.525 4.352v-63.099z" fill="#E9E9E9"/><path d="M159.845 151.22l-6.525-4.352-41.32 23.934v7.615l47.845-27.197z" fill="#F6F6F6"/><path d="M112 178.417v-7.615l-41.32-23.934-6.524 4.352 47.845 27.197z" fill="#B8B8B8"/><path d="M64.155 151.22l6.524-4.352v-54.396l-6.524-4.352v63.099z" fill="#9C9C9C"/><path d="M147.884 97.744l-15.754-10.481-20.13 28.822v29.695l35.884-48.036z" fill="url(#a)"/><path d="M112 48.833h-7.877l-12.253 17.468v20.962l20.13 28.822 20.13-28.822v-20.962l-12.253-17.468h-7.877z" fill="url(#b)"/><path d="M76.116 97.744l15.754-10.481 20.13 28.822v29.695l-35.884-48.036z" fill="url(#c)"/><path d="M91.87 66.301l-15.754-10.481 17.504-20.961 10.502 13.974-12.253 17.468z" fill="url(#d)"/><path d="M98.872 41.846l-22.755 13.974 15.754 10.481 12.253-17.468-5.251-6.987z" fill="#FCD5FC"/><path d="M132.13 66.301l15.753-10.481-17.504-20.961-10.502 13.974 12.253 17.468z" fill="url(#e)"/><path d="M119.877 48.834h-15.754l-10.502-13.974 18.379-13.101 18.379 13.101-10.502 13.974z" fill="#FF82FF"/><path d="M76.116 55.821l15.754 10.481v20.962l-15.754 10.481v-41.923z" fill="#DD00EB"/><path d="M76.116 97.306v-17.031l15.754-13.974v20.962l-15.754 10.044z" fill="#EA41F5"/><path d="M147.883 55.821l-15.753 10.481v20.962l15.753 10.481v-41.923z" fill="url(#f)"/><path d="M112 114.338l-20.13-27.075 19.692 28.385.438 30.132.438-30.132 19.692-28.385-20.13 27.075zM119.877 48.833h-15.754l15.316-.873 10.94-13.101-10.502 13.974z" fill="#fff"/><path d="M91.87 87.263l-15.754 10.481 14.441-11.354 1.313-20.088v20.962z" fill="#FF43FF"/><path d="M125.592 57.115l-3.806-5.439-26.097 41.157 10.503 14.847 19.4-50.565z" fill="#fff" fill-opacity=".19"/><path d="M222.913 119.596c-15.311 13.018-38.276 16.393-38.276 16.393l-9.569-27.198s17.702-3.659 37.797-15.231c1.914 10.125-2.392 16.875-2.392 16.875s6.698 4.339 12.44 9.161z" fill="url(#g)"/><path d="M1.087 119.67c17.305 16.319 36.647 16.319 36.647 16.319l11.198-27.198s-21.377-1.088-36.647-15.231c-2.694 6.216 2.036 17.407 2.036 17.407s-7.635 4.351-13.234 8.703z" fill="#0B4DBC"/><path d="M48.932 108.791s-8.699 5.44-25.01 4.352c11.417 4.351 25.01 6.527 25.01 6.527v-10.879z" fill="#003287"/><path d="M175.068 108.791s8.699 4.352 25.01 4.352c-9.243 3.807-25.01 7.615-25.01 7.615v-11.967z" fill="#001E51"/><path d="M23.922 113.143l-6.714 27.829c-.502 2.081.709 4.179 2.775 4.738 13.177 3.569 59.157 15.3 94.192 15.291 34.859-.008 77.457-11.61 89.927-15.238 2.023-.588 3.203-2.663 2.709-4.711l-6.733-27.909s-48.389 13.589-85.903 13.589c-37.515 0-90.253-13.589-90.253-13.589z" fill="url(#h)"/><path d="M103.301 120.758l7.612-10.879 7.612 10.879 11.961 2.176-2.175 8.703-5.437 5.44 2.175 6.527-3.806 5.44-10.33-5.44-10.33 5.44-3.806-5.44 2.175-6.527-5.437-5.44-2.175-8.703 11.961-2.176z" fill="#056CAC" filter="url(#i)"/><path d="M100.583 149.044l-3.806-5.44 14.136-6.527v6.527l-10.33 5.44z" fill="url(#j)"/><path d="M121.243 149.044l3.806-5.44-14.136-6.527v6.527l10.33 5.44z" fill="url(#k)"/><path d="M93.515 131.637l-2.175-8.703 8.699 8.703-1.087 5.44-5.437-5.44z" fill="url(#l)"/><path d="M128.311 131.637l2.175-8.703-8.699 8.703 1.087 5.44 5.437-5.44z" fill="url(#m)"/><path d="M103.301 120.758l7.612-10.879 7.612 10.879 11.961 2.176-8.699 8.703 3.262 11.967-14.136-6.527-14.136 6.527 3.262-11.967-8.699-8.703 11.961-2.176z" fill="url(#n)"/><path d="M118.525 120.758l-7.612-10.879 7.068 11.967 12.505 1.088-11.961-2.176z" fill="#fff"/><path d="M115.806 117.494l-1.087-1.631-18.486 11.967 3.806 3.807 15.767-14.143z" fill="url(#o)"/><path d="M97.321 141.429l19.573-22.303 1.087 2.176 4.893.544-10.874 15.775-1.087-.544-14.136 6.527.544-2.175z" fill="#fff"/><path d="M97.865 141.973l2.174-10.336-3.262 11.967 14.136-6.527 14.136 6.527-14.136-7.615-13.048 5.984z" fill="#FFF026"/><path d="M76.117 121.846l-10.33-9.247-5.437 10.879-10.33 4.896 6.524 6.527-1.087 13.055h12.505l4.893-4.896 9.786 3.808-1.087-9.791 5.437-7.615-4.893-7.616h-5.981z" fill="#056CAC" filter="url(#p)"/><path d="M67.961 147.956l5.437-5.44-8.699-2.72-9.243 8.16h12.505z" fill="url(#q)"/><path d="M86.99 129.461l-4.893-7.615-8.155 9.791 7.612 5.44 5.437-7.616z" fill="url(#r)"/><path d="M82.641 146.868l-1.087-9.791-7.612-5.44 2.175 12.511 6.524 2.72z" fill="url(#s)"/><path d="M76.117 121.846l-10.33-9.247 4.893 8.703 5.437.544z" fill="#FFA617"/><path d="M70.68 121.302l-4.893-8.703-5.437 10.879-10.33 4.896 6.524 6.527-1.087 13.055 9.243-8.159 11.418 4.351-2.175-12.511 8.155-9.791-11.418-.544z" fill="url(#t)"/><path d="M54.913 133.269l13.592-14.687.544 1.088-12.505 15.231-1.631-1.632z" fill="#fff"/><path d="M56 140.34l14.136-19.038.544.544h3.262l-6.524 19.038-2.718-1.087-9.243 8.159.544-7.616z" fill="url(#u)"/><path d="M70.68 121.302l-4.893-8.703 4.35 9.791 11.961-.544-11.418-.544zM51.107 128.373l9.243-4.895-10.33 4.895 6.524 6.528-5.437-6.528z" fill="#fff"/><path d="M145.709 121.302l10.33-9.247 5.981 10.879 9.242 5.44-5.98 6.527 1.087 13.055-9.242.544-5.981-6.527-6.524 2.719h-6.525l2.175-8.703-5.437-6.527 4.894-8.16h5.98z" fill="#056CAC" filter="url(#v)"/><path d="M145.709 121.302l10.33-9.247-4.349 8.703-5.981.544z" fill="#FFA517"/><path d="M134.835 129.461l4.894-8.159 8.155 10.335-7.612 4.352-5.437-6.528z" fill="url(#w)"/><path d="M140.272 135.989l7.612-4.352-3.262 13.055h-6.524l2.174-8.703z" fill="url(#x)"/><path d="M166.369 147.956l-9.242-8.16-5.981 2.176 5.981 6.528 9.242-.544z" fill="url(#y)"/><path d="M162.02 122.934l-5.981-10.879-4.349 8.703-11.961.544 8.155 10.335-3.262 13.055 12.505-4.895 9.242 8.159-1.087-13.055 5.981-6.527-9.243-5.44z" fill="url(#z)"/><path d="M151.69 120.758l4.349-8.703-3.806 9.791-12.504-.544 11.961-.544z" fill="#fff"/><path d="M145.709 143.06l2.175-11.423-3.262 13.055 12.505-4.895 9.242 8.159-9.242-9.247-11.418 4.351zM145.709 128.917l13.592-10.879 1.088 2.176-13.593 15.775 1.088-4.352-2.175-2.72zM148.428 143.06l13.592-20.126 3.262 2.176-3.806 17.95-4.349-3.264-8.699 3.264z" fill="#FFF026"/><defs><filter id="i" x="89.34" y="109.879" width="43.146" height="43.165" filterUnits="userSpaceOnUse" color-interpolation-filters="sRGB"><feFlood flood-opacity="0" result="BackgroundImageFix"/><feColorMatrix in="SourceAlpha" values="0 0 0 0 0 0 0 0 0 0 0 0 0 0 0 0 0 0 127 0"/><feOffset dy="2"/><feGaussianBlur stdDeviation="1"/><feColorMatrix values="0 0 0 0 0.00392157 0 0 0 0 0.301569 0 0 0 0 0.65098 0 0 0 1 0"/><feBlend in2="BackgroundImageFix" result="effect1_dropShadow"/><feBlend in="SourceGraphic" in2="effect1_dropShadow" result="shape"/></filter><filter id="p" x="48.02" y="112.599" width="40.971" height="39.357" filterUnits="userSpaceOnUse" color-interpolation-filters="sRGB"><feFlood flood-opacity="0" result="BackgroundImageFix"/><feColorMatrix in="SourceAlpha" values="0 0 0 0 0 0 0 0 0 0 0 0 0 0 0 0 0 0 127 0"/><feOffset dy="2"/><feGaussianBlur stdDeviation="1"/><feColorMatrix values="0 0 0 0 0.00392157 0 0 0 0 0.301569 0 0 0 0 0.65098 0 0 0 1 0"/><feBlend in2="BackgroundImageFix" result="effect1_dropShadow"/><feBlend in="SourceGraphic" in2="effect1_dropShadow" result="shape"/></filter><filter id="v" x="131.835" y="112.055" width="40.427" height="40.445" filterUnits="userSpaceOnUse" color-interpolation-filters="sRGB"><feFlood flood-opacity="0" result="BackgroundImageFix"/><feColorMatrix in="SourceAlpha" values="0 0 0 0 0 0 0 0 0 0 0 0 0 0 0 0 0 0 127 0"/><feOffset dx="-1" dy="2"/><feGaussianBlur stdDeviation="1"/><feColorMatrix values="0 0 0 0 0.0719857 0 0 0 0 0.342191 0 0 0 0 0.659389 0 0 0 1 0"/><feBlend in2="BackgroundImageFix" result="effect1_dropShadow"/><feBlend in="SourceGraphic" in2="effect1_dropShadow" result="shape"/></filter><linearGradient id="a" x1="130.379" y1="121.762" x2="115.968" y2="107.758" gradientUnits="userSpaceOnUse"><stop stop-color="#B500F1"/><stop offset="1" stop-color="#8707AC"/></linearGradient><linearGradient id="b" x1="112" y1="116.085" x2="97.616" y2="53.187" gradientUnits="userSpaceOnUse"><stop stop-color="#BB07EA"/><stop offset="1" stop-color="#FF34FE"/></linearGradient><linearGradient id="c" x1="107.624" y1="136.61" x2="87.132" y2="79.812" gradientUnits="userSpaceOnUse"><stop stop-color="#8600B8"/><stop offset="1" stop-color="#DD00EB"/></linearGradient><linearGradient id="d" x1="90.12" y1="66.301" x2="80.088" y2="46.196" gradientUnits="userSpaceOnUse"><stop stop-color="#f3f"/><stop offset="1" stop-color="#FEBBFE"/></linearGradient><linearGradient id="e" x1="125.128" y1="57.567" x2="126" y2="32.239" gradientUnits="userSpaceOnUse"><stop stop-color="#f3f"/><stop offset="1" stop-color="#FF82FF"/></linearGradient><linearGradient id="f" x1="129.066" y1="82.459" x2="150.068" y2="86.844" gradientUnits="userSpaceOnUse"><stop stop-color="#8900AC"/><stop offset="1" stop-color="#DB1CF4"/></linearGradient><linearGradient id="g" x1="196.272" y1="119.67" x2="203.402" y2="107.74" gradientUnits="userSpaceOnUse"><stop stop-color="#003793"/><stop offset="1" stop-color="#0B4DBC"/></linearGradient><linearGradient id="h" x1="128.311" y1="113.143" x2="108.178" y2="157.196" gradientUnits="userSpaceOnUse"><stop stop-color="#1D64DC"/><stop offset="1" stop-color="#4BB8FB"/></linearGradient><linearGradient id="j" x1="100.583" y1="141.429" x2="103.303" y2="145.235" gradientUnits="userSpaceOnUse"><stop stop-color="#ED790C"/><stop offset="1" stop-color="#F99212"/></linearGradient><linearGradient id="k" x1="121.243" y1="139.797" x2="113.63" y2="143.601" gradientUnits="userSpaceOnUse"><stop stop-color="#DE4C00"/><stop offset="1" stop-color="#EA7107"/></linearGradient><linearGradient id="l" x1="100.039" y1="130.549" x2="95.689" y2="131.636" gradientUnits="userSpaceOnUse"><stop stop-color="#E55E05"/><stop offset="1" stop-color="#F99113"/></linearGradient><linearGradient id="m" x1="126.136" y1="122.934" x2="126.136" y2="132.181" gradientUnits="userSpaceOnUse"><stop stop-color="#E96905"/><stop offset="1" stop-color="#FC9A12"/></linearGradient><linearGradient id="n" x1="103.301" y1="138.709" x2="110.92" y2="114.233" gradientUnits="userSpaceOnUse"><stop stop-color="#FECE24"/><stop offset="1" stop-color="#FBE979"/></linearGradient><linearGradient id="o" x1="114.719" y1="116.95" x2="98.402" y2="129.454" gradientUnits="userSpaceOnUse"><stop stop-color="#fff"/><stop offset="1" stop-color="#FFF026"/></linearGradient><linearGradient id="q" x1="68.505" y1="140.884" x2="67.961" y2="143.604" gradientUnits="userSpaceOnUse"><stop stop-color="#F6801B"/><stop offset="1" stop-color="#FE9B19"/></linearGradient><linearGradient id="r" x1="75.029" y1="129.461" x2="82.097" y2="129.461" gradientUnits="userSpaceOnUse"><stop stop-color="#E66009"/><stop offset="1" stop-color="#E86706"/></linearGradient><linearGradient id="s" x1="73.942" y1="135.989" x2="79.924" y2="139.25" gradientUnits="userSpaceOnUse"><stop stop-color="#F8821D"/><stop offset="1" stop-color="#FFA914"/></linearGradient><linearGradient id="t" x1="66.058" y1="112.599" x2="61.977" y2="140.34" gradientUnits="userSpaceOnUse"><stop stop-color="#FBE979"/><stop offset="1" stop-color="#FED333"/></linearGradient><linearGradient id="u" x1="68.505" y1="125.11" x2="64.696" y2="140.34" gradientUnits="userSpaceOnUse"><stop stop-color="#fff"/><stop offset="1" stop-color="#FFF026"/></linearGradient><linearGradient id="w" x1="141.631" y1="121.302" x2="141.631" y2="135.989" gradientUnits="userSpaceOnUse"><stop stop-color="#E66407"/><stop offset="1" stop-color="#FC9A15"/></linearGradient><linearGradient id="x" x1="147.34" y1="132.181" x2="141.9" y2="139.794" gradientUnits="userSpaceOnUse"><stop stop-color="#E96A09"/><stop offset="1" stop-color="#F99312"/></linearGradient><linearGradient id="y" x1="156.039" y1="140.34" x2="159.847" y2="145.234" gradientUnits="userSpaceOnUse"><stop stop-color="#DF4F01"/><stop offset="1" stop-color="#F48A10"/></linearGradient><linearGradient id="z" x1="155.496" y1="112.055" x2="155.496" y2="147.956" gradientUnits="userSpaceOnUse"><stop stop-color="#FBE979"/><stop offset="1" stop-color="#FED231"/></linearGradient></defs></svg>